<?xml version="1.0" encoding="utf-8"?>
<!-- Generator: Adobe Illustrator 16.0.0, SVG Export Plug-In . SVG Version: 6.00 Build 0)  -->
<!DOCTYPE svg PUBLIC "-//W3C//DTD SVG 1.1//EN" "http://www.w3.org/Graphics/SVG/1.1/DTD/svg11.dtd">
<svg version="1.1" id="Layer_1" xmlns="http://www.w3.org/2000/svg" xmlns:xlink="http://www.w3.org/1999/xlink" x="0px" y="0px"
	 width="379.31px" height="217.242px" viewBox="0 0 379.31 217.242" enable-background="new 0 0 379.31 217.242"
	 xml:space="preserve">
<g>
	<linearGradient id="SVGID_1_" gradientUnits="userSpaceOnUse" x1="238.4556" y1="64.5728" x2="310.063" y2="166.4753">
		<stop  offset="0" style="stop-color:#F0F9FB"/>
		<stop  offset="0.1404" style="stop-color:#E6F0F7"/>
		<stop  offset="0.3727" style="stop-color:#CCDEF1"/>
		<stop  offset="0.668" style="stop-color:#A3C4E6"/>
		<stop  offset="1" style="stop-color:#6EA6D9"/>
	</linearGradient>
	<path fill="url(#SVGID_1_)" d="M222.831,48.31c-4.483,19.914,7.383,42.709,18.047,60.345c2.945,4.874,3.729,10.605,6.373,15.067
		c2.884,4.864,6.173,9.672,9.105,14.751c5.28,9.142,14.645,14.553,21.625,22.313c1.669,1.855,3.038,4.681,4.58,6.596
		c19.006,1.11,43.059-0.128,61.705-0.617c-2.191-6.073-22.606-12.006-28.161-16.594c-6.279-5.186-7.237-12.1-12.087-18.438
		c-2.658-3.473-5.08-5.776-6.687-9.668c-1.544-3.736-1.536-6.912-4.657-10.24c-4.182-4.46-11.318-9.694-16.405-13.339
		c-0.517,2.154-2.286,10.4-5.034,10.237c-3.381-0.201-3.162-8.502-4.594-10.353c-2.176-2.808-5.396-2.993-7.881-5.526
		c-2.205-2.244-4.169-6.627-5.999-9.296c-0.056,0.834-0.1,1.783-0.24,2.643c-5.242,0.304-5.048-5.488-7.177-8.822
		c-2.088-3.269-4.922-6.083-7.034-9.688c-4.37-7.461-7.809-14.121-14.733-18.626"/>
	<linearGradient id="SVGID_2_" gradientUnits="userSpaceOnUse" x1="145.6758" y1="56.0806" x2="155.7018" y2="171.3736">
		<stop  offset="0" style="stop-color:#F0F9FB"/>
		<stop  offset="0.9946" style="stop-color:#6CC7DA"/>
	</linearGradient>
	<path fill="url(#SVGID_2_)" d="M27.64,165.276c7.108-7.849,20.743-13.195,29.986-18.44c9.582-5.437,20.21-8.159,30.359-12.292
		c10.431-4.248,17.827-10.523,27.568-15.272c10.637-5.186,22.33-8.506,32.76-13.761c25.958-13.08,43.849-37.659,68.407-51.907
		c1.204,6.287-1.597,12.205,0.713,18.548c2.078,5.705,5.845,10.179,8.544,15.462c2.455,4.804,5.127,10.908,8.59,15.104
		c4.627,5.606,6.201,7.639,8.939,14.155c3.992,9.495,11.506,20.439,18.25,28.271c3.429,3.982,22.74,18.437,22.165,23.858
		c0,0-0.251-0.337,0,0c-22.351-2.235-130.8,3.54-155.723-0.166C110.866,166.258,93.616,169,76.066,169
		c-8.453,0-17.282-0.376-25.313-0.762c-7.359-0.355-17.052-3.236-23.857-0.728"/>
	<path fill="#F3FAFE" d="M115.55,169.746c0.703-4.486,13.757-13.019,18.441-17.32c6.427-5.9,12.772-11.661,19.534-16.931
		c14.574-11.358,25.928-25.958,37.867-39.444c0.676,16.545-11.554,29.754-17.451,43.946c6.094-1.079,9.978-8.007,14.672-11.706
		c-0.135,2.983-0.938,5.847-2.197,8.372c12.859-10.535,14.84-29.972,23.041-43.386c-3.412,18.878-9.168,38.075-17.08,55.476
		c1.186-0.772,3.645-1.626,4.99-2.753c-1.779,6.852-5.512,17.672-9.552,23.746H115.55z"/>
	<path fill="#F3FAFE" d="M59.675,148.141c3.632,2.023-2.049,14.859-5.1,18.51c7.095-3.692,9.633-11.124,12.343-17.705
		c0.181,1.085,0.848,2.388,1.079,3.567c2.563-1.177,4.792-4.112,7.21-6.383c0.004,1.046,0.27,2.327,0.223,3.386
		c2.711-0.834,4.818-3.649,8.141-4.281c1.609,3.065,3.442,4.383,3.78,8.022c2.552-0.847,3.705-3.967,5.719-5.802
		c0.676,5.435-0.714,14.519-4.225,18.47c6.668-7.729,9.031-18.454,13.874-26.668c0.176,1.133,0.555,1.864,0.858,2.825
		c7.863-0.984,14.457-18.338,19.981-23.627c5.206,10.347-0.844,35.15-6.592,44.283c10.676-14.828,12.351-31.4,17.974-47.471
		c0.053,0.291,0.776,3.973,0.838,5.827c1.314-1.812,3.667-3,5.1-4.676c2.521-0.394,5.642-3.474,8.38-2.603
		c2.301,0.732,4.896,5.92,5.16,8.189c6.362-4.031,9.135-15.06,13.117-21.304c1.899,5.598,2.123,10.242,2.552,16.088
		c5.016-5.009,7.296-15.177,10.281-21.546c3.808-8.123,7.772-17.267,13.239-24.376c1.315,3.301,1.904,7.248,1.826,10.907
		c0.423-1.166,1.666-3.307,2.105-4.931c-0.262,2.306,0.129,4.665-0.077,6.976c2.537-7.561,8.489-18.113,12.853-24.981
		c6.736,4.256,7.703,17.563,11.752,24.486c5.138,8.782,8.072,18.851,13.616,27.398c10.409,16.051,20.649,30.864,33.226,44.808
		c-3.465-9.143-13.736-18.487-18.719-27.504c-4.902-8.87-7.794-18.659-12.273-27.753c-4.133-8.39-9.135-16.206-11.939-25.145
		c-3.26-10.388-1.102-18.622-1.769-28.942c-4.224-0.274-9.154,7.231-12.737,10.132c-3.796,3.074-7.6,4.455-11.553,7.057
		c-8.607,5.663-16.119,15.453-24.02,22.351c-19.588,17.099-45.954,22.143-67.053,36.172c-15.748,10.473-30.908,17.516-48.425,23.447
		c-12.583,4.262-25.404,12.534-34.754,22.2c12.079,0.45,21.736-15.204,32.52-18.661"/>
</g>
<path fill="#FFFFFF" d="M-417.242-268.104"/>
</svg>
